<mxfile host="app.diagrams.net" agent="Mozilla/5.0 (Windows NT 10.0; Win64; x64) AppleWebKit/537.36 (KHTML, like Gecko) Chrome/130.0.0.0 Safari/537.36" version="24.8.3">
  <diagram name="Página-1" id="BV0Pan63FsvAOE3je1kY">
    <mxGraphModel dx="1195" dy="650" grid="1" gridSize="10" guides="1" tooltips="1" connect="1" arrows="1" fold="1" page="1" pageScale="1" pageWidth="827" pageHeight="1169" math="0" shadow="0">
      <root>
        <mxCell id="0" />
        <mxCell id="1" parent="0" />
        <mxCell id="_pvLdG_7PZrH1dz6Or2_-3" value="" style="edgeStyle=orthogonalEdgeStyle;rounded=0;orthogonalLoop=1;jettySize=auto;html=1;" edge="1" parent="1" source="_pvLdG_7PZrH1dz6Or2_-1" target="_pvLdG_7PZrH1dz6Or2_-2">
          <mxGeometry relative="1" as="geometry" />
        </mxCell>
        <mxCell id="_pvLdG_7PZrH1dz6Or2_-1" value="inicio" style="ellipse;whiteSpace=wrap;html=1;" vertex="1" parent="1">
          <mxGeometry x="40" y="40" width="80" height="80" as="geometry" />
        </mxCell>
        <mxCell id="_pvLdG_7PZrH1dz6Or2_-15" style="edgeStyle=orthogonalEdgeStyle;rounded=0;orthogonalLoop=1;jettySize=auto;html=1;entryX=0;entryY=0.5;entryDx=0;entryDy=0;" edge="1" parent="1" source="_pvLdG_7PZrH1dz6Or2_-2" target="_pvLdG_7PZrH1dz6Or2_-13">
          <mxGeometry relative="1" as="geometry" />
        </mxCell>
        <mxCell id="_pvLdG_7PZrH1dz6Or2_-2" value="consultar historico" style="whiteSpace=wrap;html=1;" vertex="1" parent="1">
          <mxGeometry x="180" y="50" width="120" height="60" as="geometry" />
        </mxCell>
        <mxCell id="_pvLdG_7PZrH1dz6Or2_-24" style="edgeStyle=orthogonalEdgeStyle;rounded=0;orthogonalLoop=1;jettySize=auto;html=1;entryX=0.5;entryY=0;entryDx=0;entryDy=0;" edge="1" parent="1" source="_pvLdG_7PZrH1dz6Or2_-4" target="_pvLdG_7PZrH1dz6Or2_-17">
          <mxGeometry relative="1" as="geometry" />
        </mxCell>
        <mxCell id="_pvLdG_7PZrH1dz6Or2_-4" value="tipos de historico" style="swimlane;fontStyle=0;childLayout=stackLayout;horizontal=1;startSize=30;horizontalStack=0;resizeParent=1;resizeParentMax=0;resizeLast=0;collapsible=1;marginBottom=0;whiteSpace=wrap;html=1;" vertex="1" parent="1">
          <mxGeometry x="510" y="50" width="140" height="150" as="geometry" />
        </mxCell>
        <mxCell id="_pvLdG_7PZrH1dz6Or2_-5" value="data" style="text;strokeColor=none;fillColor=none;align=left;verticalAlign=middle;spacingLeft=4;spacingRight=4;overflow=hidden;points=[[0,0.5],[1,0.5]];portConstraint=eastwest;rotatable=0;whiteSpace=wrap;html=1;" vertex="1" parent="_pvLdG_7PZrH1dz6Or2_-4">
          <mxGeometry y="30" width="140" height="30" as="geometry" />
        </mxCell>
        <mxCell id="_pvLdG_7PZrH1dz6Or2_-7" value="usuario" style="text;strokeColor=none;fillColor=none;align=left;verticalAlign=middle;spacingLeft=4;spacingRight=4;overflow=hidden;points=[[0,0.5],[1,0.5]];portConstraint=eastwest;rotatable=0;whiteSpace=wrap;html=1;" vertex="1" parent="_pvLdG_7PZrH1dz6Or2_-4">
          <mxGeometry y="60" width="140" height="30" as="geometry" />
        </mxCell>
        <mxCell id="_pvLdG_7PZrH1dz6Or2_-8" value="ativo" style="text;strokeColor=none;fillColor=none;align=left;verticalAlign=middle;spacingLeft=4;spacingRight=4;overflow=hidden;points=[[0,0.5],[1,0.5]];portConstraint=eastwest;rotatable=0;whiteSpace=wrap;html=1;" vertex="1" parent="_pvLdG_7PZrH1dz6Or2_-4">
          <mxGeometry y="90" width="140" height="30" as="geometry" />
        </mxCell>
        <mxCell id="_pvLdG_7PZrH1dz6Or2_-9" value="movimentações" style="text;strokeColor=none;fillColor=none;align=left;verticalAlign=middle;spacingLeft=4;spacingRight=4;overflow=hidden;points=[[0,0.5],[1,0.5]];portConstraint=eastwest;rotatable=0;whiteSpace=wrap;html=1;" vertex="1" parent="_pvLdG_7PZrH1dz6Or2_-4">
          <mxGeometry y="120" width="140" height="30" as="geometry" />
        </mxCell>
        <mxCell id="_pvLdG_7PZrH1dz6Or2_-13" value="lista de movimentações" style="rounded=0;whiteSpace=wrap;html=1;" vertex="1" parent="1">
          <mxGeometry x="350" y="50" width="120" height="60" as="geometry" />
        </mxCell>
        <mxCell id="_pvLdG_7PZrH1dz6Or2_-16" style="edgeStyle=orthogonalEdgeStyle;rounded=0;orthogonalLoop=1;jettySize=auto;html=1;entryX=-0.006;entryY=0;entryDx=0;entryDy=0;entryPerimeter=0;" edge="1" parent="1" source="_pvLdG_7PZrH1dz6Or2_-13" target="_pvLdG_7PZrH1dz6Or2_-5">
          <mxGeometry relative="1" as="geometry">
            <Array as="points">
              <mxPoint x="500" y="80" />
              <mxPoint x="500" y="80" />
            </Array>
          </mxGeometry>
        </mxCell>
        <mxCell id="_pvLdG_7PZrH1dz6Or2_-19" value="" style="edgeStyle=orthogonalEdgeStyle;rounded=0;orthogonalLoop=1;jettySize=auto;html=1;" edge="1" parent="1" source="_pvLdG_7PZrH1dz6Or2_-17" target="_pvLdG_7PZrH1dz6Or2_-18">
          <mxGeometry relative="1" as="geometry" />
        </mxCell>
        <mxCell id="_pvLdG_7PZrH1dz6Or2_-20" value="não" style="edgeLabel;html=1;align=center;verticalAlign=middle;resizable=0;points=[];" vertex="1" connectable="0" parent="_pvLdG_7PZrH1dz6Or2_-19">
          <mxGeometry x="0.1111" y="1" relative="1" as="geometry">
            <mxPoint as="offset" />
          </mxGeometry>
        </mxCell>
        <mxCell id="_pvLdG_7PZrH1dz6Or2_-23" value="" style="edgeStyle=orthogonalEdgeStyle;rounded=0;orthogonalLoop=1;jettySize=auto;html=1;" edge="1" parent="1" source="_pvLdG_7PZrH1dz6Or2_-17" target="_pvLdG_7PZrH1dz6Or2_-22">
          <mxGeometry relative="1" as="geometry">
            <Array as="points">
              <mxPoint x="650" y="280" />
              <mxPoint x="650" y="280" />
            </Array>
          </mxGeometry>
        </mxCell>
        <mxCell id="_pvLdG_7PZrH1dz6Or2_-25" value="sim" style="edgeLabel;html=1;align=center;verticalAlign=middle;resizable=0;points=[];" vertex="1" connectable="0" parent="_pvLdG_7PZrH1dz6Or2_-23">
          <mxGeometry x="-0.0278" y="-1" relative="1" as="geometry">
            <mxPoint as="offset" />
          </mxGeometry>
        </mxCell>
        <mxCell id="_pvLdG_7PZrH1dz6Or2_-17" value="realizar a pesquisa" style="rhombus;whiteSpace=wrap;html=1;" vertex="1" parent="1">
          <mxGeometry x="540" y="240" width="80" height="80" as="geometry" />
        </mxCell>
        <mxCell id="_pvLdG_7PZrH1dz6Or2_-18" value="alerta informando que mão tem movimentação" style="whiteSpace=wrap;html=1;" vertex="1" parent="1">
          <mxGeometry x="360" y="250" width="120" height="60" as="geometry" />
        </mxCell>
        <mxCell id="_pvLdG_7PZrH1dz6Or2_-22" value="exibe os dados retornados" style="whiteSpace=wrap;html=1;" vertex="1" parent="1">
          <mxGeometry x="680" y="250" width="120" height="60" as="geometry" />
        </mxCell>
      </root>
    </mxGraphModel>
  </diagram>
</mxfile>
